<svg width="60" height="60" viewBox="0 0 60 60" fill="none" xmlns="http://www.w3.org/2000/svg">
<g clip-path="url(#clip0_110_210)">
<path d="M40.3133 10.3783C39.7174 9.78217 39.0099 9.30925 38.2312 8.98659C37.4525 8.66394 36.6179 8.49786 35.775 8.49786C34.9321 8.49786 34.0975 8.66394 33.3187 8.98659C32.54 9.30925 31.8325 9.78217 31.2367 10.3783L30 11.615L28.7633 10.3783C27.5597 9.17469 25.9272 8.49849 24.225 8.49849C22.5228 8.49849 20.8903 9.17469 19.6867 10.3783C18.483 11.582 17.8068 13.2145 17.8068 14.9167C17.8068 16.6189 18.483 18.2514 19.6867 19.455L30 29.7683L40.3133 19.455C40.9095 18.8591 41.3824 18.1516 41.7051 17.3729C42.0277 16.5942 42.1938 15.7596 42.1938 14.9167C42.1938 14.0738 42.0277 13.2391 41.7051 12.4604C41.3824 11.6817 40.9095 10.9742 40.3133 10.3783Z" stroke="#1E1E1E" stroke-width="3" stroke-linecap="round" stroke-linejoin="round"/>
<path d="M50.6217 40.3133C51.2178 39.7174 51.6908 39.0099 52.0134 38.2312C52.3361 37.4525 52.5021 36.6179 52.5021 35.775C52.5021 34.9321 52.3361 34.0975 52.0134 33.3187C51.6908 32.54 51.2178 31.8325 50.6217 31.2367L49.385 30L50.6217 28.7633C51.8253 27.5597 52.5015 25.9272 52.5015 24.225C52.5015 22.5228 51.8253 20.8903 50.6217 19.6867C49.418 18.483 47.7855 17.8068 46.0833 17.8068C44.3811 17.8068 42.7486 18.483 41.545 19.6867L31.2317 30L41.545 40.3133C42.1409 40.9095 42.8484 41.3824 43.6271 41.7051C44.4058 42.0277 45.2404 42.1938 46.0833 42.1938C46.9262 42.1938 47.7609 42.0277 48.5396 41.7051C49.3183 41.3824 50.0258 40.9095 50.6217 40.3133Z" stroke="#1E1E1E" stroke-width="3" stroke-linecap="round" stroke-linejoin="round"/>
<path d="M19.6867 49.6217C20.2826 50.2178 20.9901 50.6908 21.7688 51.0134C22.5475 51.3361 23.3821 51.5021 24.225 51.5021C25.0679 51.5021 25.9025 51.3361 26.6813 51.0134C27.46 50.6908 28.1675 50.2178 28.7633 49.6217L30 48.385L31.2367 49.6217C32.4403 50.8253 34.0728 51.5015 35.775 51.5015C37.4772 51.5015 39.1097 50.8253 40.3133 49.6217C41.517 48.418 42.1932 46.7855 42.1932 45.0833C42.1932 43.3811 41.517 41.7486 40.3133 40.545L30 30.2317L19.6867 40.545C19.0905 41.1409 18.6176 41.8484 18.2949 42.6271C17.9723 43.4058 17.8062 44.2404 17.8062 45.0833C17.8062 45.9262 17.9723 46.7609 18.2949 47.5396C18.6176 48.3183 19.0905 49.0258 19.6867 49.6217Z" stroke="#1E1E1E" stroke-width="3" stroke-linecap="round" stroke-linejoin="round"/>
<path d="M9.37833 19.6867C8.78217 20.2826 8.30925 20.9901 7.98659 21.7688C7.66394 22.5475 7.49786 23.3821 7.49786 24.225C7.49786 25.0679 7.66394 25.9025 7.98659 26.6813C8.30925 27.46 8.78217 28.1675 9.37833 28.7633L10.615 30L9.37833 31.2367C8.17469 32.4403 7.49849 34.0728 7.49849 35.775C7.49849 37.4772 8.17469 39.1097 9.37833 40.3133C10.582 41.517 12.2145 42.1932 13.9167 42.1932C15.6189 42.1932 17.2514 41.517 18.455 40.3133L28.7683 30L18.455 19.6867C17.8591 19.0905 17.1516 18.6176 16.3729 18.2949C15.5942 17.9723 14.7596 17.8062 13.9167 17.8062C13.0738 17.8062 12.2391 17.9723 11.4604 18.2949C10.6817 18.6176 9.97421 19.0905 9.37833 19.6867Z" stroke="#1E1E1E" stroke-width="3" stroke-linecap="round" stroke-linejoin="round"/>
<path d="M30 55C43.8071 55 55 43.8071 55 30C55 16.1929 43.8071 5 30 5C16.1929 5 5 16.1929 5 30C5 43.8071 16.1929 55 30 55Z" stroke="#1E1E1E" stroke-width="4" stroke-linecap="round" stroke-linejoin="round"/>
</g>
<defs>
<clipPath id="clip0_110_210">
<rect width="60" height="60" rx="30" fill="white"/>
</clipPath>
</defs>
</svg>
