<svg width="60" height="60" viewBox="0 0 60 60" fill="none" xmlns="http://www.w3.org/2000/svg">
<path d="M52.1 11.525C50.8231 10.2475 49.307 9.2341 47.6384 8.5427C45.9697 7.85129 44.1812 7.49542 42.375 7.49542C40.5688 7.49542 38.7803 7.85129 37.1116 8.5427C35.443 9.2341 33.9269 10.2475 32.65 11.525L30 14.175L27.35 11.525C24.7708 8.94576 21.2726 7.49676 17.625 7.49676C13.9774 7.49676 10.4792 8.94576 7.89999 11.525C5.32076 14.1042 3.87177 17.6024 3.87177 21.25C3.87177 24.8976 5.32076 28.3958 7.89999 30.975L30 53.075L52.1 30.975C53.3775 29.6981 54.3909 28.182 55.0823 26.5134C55.7737 24.8447 56.1296 23.0562 56.1296 21.25C56.1296 19.4438 55.7737 17.6552 55.0823 15.9866C54.3909 14.318 53.3775 12.8019 52.1 11.525Z" stroke="#1E1E1E" stroke-width="4" stroke-linecap="round" stroke-linejoin="round"/>
</svg>
